<svg width="104" height="93" viewBox="0 0 104 93" fill="none" xmlns="http://www.w3.org/2000/svg">
<path d="M60.6674 27.1244H49.8326C48.1087 27.1244 46.4554 27.7368 45.2364 28.8268C44.0175 29.9169 43.3326 31.3953 43.3326 32.9369C43.3326 34.4785 44.0175 35.9569 45.2364 37.0469C46.4554 38.137 48.1087 38.7494 49.8326 38.7494H54.1674C55.8913 38.7494 57.5446 39.3618 58.7636 40.4518C59.9825 41.5419 60.6674 43.0203 60.6674 44.5619C60.6674 45.3252 60.4992 46.081 60.1726 46.7862C59.8459 47.4914 59.3671 48.1322 58.7636 48.6719C58.16 49.2117 57.4434 49.6398 56.6548 49.9319C55.8662 50.224 55.021 50.3744 54.1674 50.3744H43.3326M52 50.3744V54.2506M52 23.25V27.1244" stroke="#344054" stroke-width="2.08" stroke-linecap="round" stroke-linejoin="round"/>
<path d="M26 81.375H78M86.6674 11.625H17.3326C14.9406 11.625 13 13.3604 13 15.4994V61.9994C13 64.1384 14.9406 65.8756 17.3326 65.8756H86.6674C89.0594 65.8756 91 64.1402 91 61.9994V15.4994C91 13.3604 89.0594 11.625 86.6674 11.625Z" stroke="#0297D4" stroke-width="2.08" stroke-linecap="round" stroke-linejoin="round"/>
</svg>
