<svg width="24" height="24" viewBox="0 0 24 24" fill="none" xmlns="http://www.w3.org/2000/svg">
<path d="M7.77204 2.43905L8.84904 2.09505C9.85704 1.77305 10.935 2.29405 11.367 3.31205L12.227 5.34005C12.602 6.22305 12.394 7.26205 11.713 7.90805L9.82004 9.70605C9.93671 10.7821 10.298 11.8411 10.904 12.8831C11.4803 13.8909 12.2525 14.7732 13.175 15.4781L15.451 14.7181C16.313 14.4311 17.252 14.7621 17.781 15.5391L19.013 17.3491C19.629 18.2531 19.518 19.4991 18.755 20.2651L17.937 21.0861C17.123 21.9031 15.961 22.2001 14.885 21.8641C12.3464 21.0721 10.012 18.7211 7.88204 14.8111C5.74937 10.8944 4.99671 7.57172 5.62404 4.84305C5.88804 3.69505 6.70604 2.78005 7.77404 2.43905" fill="white"/>
</svg>
