<svg width="80" height="80" viewBox="0 0 80 80" fill="none" xmlns="http://www.w3.org/2000/svg">
<path d="M69.9002 68.0493C71.7351 69.2796 74.2396 68.7975 75.2806 66.849C78.0323 61.6984 79.6308 55.9924 79.9433 50.1289C80.327 42.9299 78.758 35.761 75.4022 29.3805C72.0464 23 67.0286 17.645 60.8795 13.8819C54.7304 10.1188 47.6786 8.08744 40.4699 8.00276C33.2612 7.91808 26.1636 9.78317 19.9278 13.4008C13.692 17.0184 8.54974 22.2541 5.04499 28.554C1.54024 34.8539 -0.196763 41.984 0.0177041 49.19C0.192387 55.0592 1.65639 60.8012 4.28638 66.015C5.28133 67.9874 7.77379 68.5283 9.63701 67.3414L12.5138 65.5088C14.377 64.322 14.8965 61.8575 13.981 59.847C12.4116 56.4 11.537 52.6628 11.4236 48.8505C11.2703 43.7002 12.5118 38.6041 15.0167 34.1014C17.5216 29.5987 21.1969 25.8566 25.6538 23.271C30.1107 20.6854 35.1836 19.3523 40.3358 19.4129C45.4881 19.4734 50.5282 20.9252 54.9231 23.6148C59.3181 26.3044 62.9044 30.1318 65.3029 34.6921C67.7014 39.2525 68.8228 44.3763 68.5486 49.5216C68.3456 53.3302 67.3835 57.0458 65.7335 60.4549C64.7711 62.4434 65.2325 64.9194 67.0673 66.1497L69.9002 68.0493Z" fill="white"/>
<path d="M45.2811 61.6374C44.3982 64.9326 41.0111 66.8882 37.7159 66.0052C34.4207 65.1223 32.4652 61.7352 33.3481 58.44C34.2311 55.1448 47.194 30.6324 47.194 30.6324C47.194 30.6324 46.1641 58.3422 45.2811 61.6374Z" fill="white"/>
</svg>
