<svg width="17" height="16" viewBox="0 0 17 16" fill="none" xmlns="http://www.w3.org/2000/svg">
<path d="M4 6.63158L7.55556 10L16 2" stroke="#0297D4" stroke-width="2" stroke-linecap="round"/>
<path d="M12.6603 2.5407C12.9551 2.19538 12.9162 1.67251 12.5425 1.41471C11.2011 0.489415 9.60285 -0.008058 7.96027 9.86329e-05C6.04249 0.00962185 4.19195 0.707763 2.74577 1.96734C1.29958 3.22691 0.354005 4.96409 0.0812952 6.86241C-0.191414 8.76072 0.226893 10.6938 1.26001 12.3096C2.29313 13.9253 3.8723 15.1162 5.70985 15.6652C7.54739 16.2142 9.52101 16.0848 11.2712 15.3007C13.0213 14.5165 14.4315 13.1297 15.2449 11.3929C15.9415 9.90533 16.1606 8.24582 15.8836 6.64C15.8064 6.19259 15.3481 5.93789 14.9109 6.06056V6.06056C14.4738 6.18324 14.2246 6.63705 14.2899 7.08635C14.4676 8.30983 14.2853 9.5652 13.7559 10.6956C13.1097 12.0754 11.9893 13.1772 10.5989 13.8002C9.20841 14.4233 7.64041 14.526 6.18051 14.0899C4.72062 13.6537 3.46599 12.7076 2.6452 11.4239C1.82441 10.1402 1.49207 8.60438 1.70873 7.0962C1.9254 5.58803 2.67664 4.20787 3.82561 3.20716C4.97457 2.20645 6.4448 1.65179 7.96844 1.64422C9.21663 1.63803 10.4326 1.99933 11.4686 2.67404C11.849 2.92181 12.3656 2.88601 12.6603 2.5407V2.5407Z" fill="#0297D4"/>
</svg>
