<svg width="24" height="25" viewBox="0 0 24 25" fill="none" xmlns="http://www.w3.org/2000/svg">
<path fill-rule="evenodd" clip-rule="evenodd" d="M11.262 22.634C11.262 22.634 4 16.518 4 10.5C4 8.37827 4.84285 6.34344 6.34315 4.84315C7.84344 3.34285 9.87827 2.5 12 2.5C14.1217 2.5 16.1566 3.34285 17.6569 4.84315C19.1571 6.34344 20 8.37827 20 10.5C20 16.518 12.738 22.634 12.738 22.634C12.334 23.006 11.669 23.002 11.262 22.634ZM12 14C12.4596 14 12.9148 13.9095 13.3394 13.7336C13.764 13.5577 14.1499 13.2999 14.4749 12.9749C14.7999 12.6499 15.0577 12.264 15.2336 11.8394C15.4095 11.4148 15.5 10.9596 15.5 10.5C15.5 10.0404 15.4095 9.58525 15.2336 9.16061C15.0577 8.73597 14.7999 8.35013 14.4749 8.02513C14.1499 7.70012 13.764 7.44231 13.3394 7.26642C12.9148 7.09053 12.4596 7 12 7C11.0717 7 10.1815 7.36875 9.52513 8.02513C8.86875 8.6815 8.5 9.57174 8.5 10.5C8.5 11.4283 8.86875 12.3185 9.52513 12.9749C10.1815 13.6313 11.0717 14 12 14Z" fill="#777777"/>
</svg>
